<svg height="512pt" viewBox="0 0 512 512" width="512pt" xmlns="http://www.w3.org/2000/svg"><path d="m383.851562 264.917969c-.855468-5.140625-5.292968-8.917969-10.519531-8.917969h-341.332031c-5.226562 0-9.664062 3.777344-10.515625 8.917969l-21.335937 128c-.511719 3.09375.363281 6.25 2.390624 8.640625 2.003907 2.410156 4.992188 3.773437 8.128907 3.773437h384c3.132812 0 6.121093-1.363281 8.125-3.773437 2.027343-2.390625 2.902343-5.546875 2.390625-8.640625zm0 0" fill="#00bcd4"/><path d="m309.332031 106.667969h-213.332031c-5.886719 0-10.667969 4.777343-10.667969 10.664062v213.335938c0 5.886719 4.78125 10.664062 10.667969 10.664062h213.332031c5.890625 0 10.667969-4.777343 10.667969-10.664062v-213.335938c0-5.886719-4.777344-10.664062-10.667969-10.664062zm0 0" fill="#cfd8dc"/><path d="m446.25 26.515625c-1.664062-2.535156-4.308594-4.242187-7.296875-4.691406l-140.285156-21.460938c-19.136719 0-65.324219 1.238281-80.300781 12.265625l-85.332032 52.972656c-4.054687 2.515626-5.929687 7.402344-4.628906 11.988282 1.320312 4.585937 5.503906 7.742187 10.261719 7.742187h96c.851562 0 1.683593-.105469 2.515625-.296875l14.292968-3.519531c9.238282-1.34375 18.476563 1.429687 25.472657 7.488281 7.039062 6.101563 11.050781 14.910156 11.050781 24.210938 0 7.402344-2.304688 14.488281-6.675781 20.460937l-33.558594 46.101563c-9.367187 14.035156-7.507813 32.894531 4.4375 44.839844 6.933594 6.933593 16.019531 10.390624 25.128906 10.390624s18.199219-3.476562 25.132813-10.390624l54.078125-54.078126c28.546875-1.601562 53.847656-18.132812 66.753906-43.945312.320313-.664062.574219-1.347656.765625-2.050781l23.574219-89.472657c.789062-2.921874.277343-6.035156-1.386719-8.554687zm0 0" fill="#ffcc80"/><path d="m394.667969 384h-384c-5.890625 0-10.667969 4.777344-10.667969 10.667969v106.664062c0 5.890625 4.777344 10.667969 10.667969 10.667969h384c5.886719 0 10.664062-4.777344 10.664062-10.667969v-106.664062c0-5.890625-4.777343-10.667969-10.664062-10.667969zm0 0" fill="#0097a7"/><path d="m501.332031 0c-29.160156 0-67.667969 21.800781-69.289062 22.742188-2.324219 1.320312-4.054688 3.476562-4.863281 6.015624-.703126 2.175782-16.960938 53.566407-21.804688 108.992188-.277344 3.242188.917969 6.441406 3.285156 8.660156 18.667969 17.707032 79.789063 23.296875 91.839844 24.234375.277344.023438.554688.023438.832031.023438 2.667969 0 5.269531-1.003907 7.234375-2.839844 2.195313-2.027344 3.433594-4.863281 3.433594-7.828125v-149.332031c0-5.890625-4.777344-10.667969-10.667969-10.667969zm0 0" fill="#455a64"/><path d="m501.332031 170.667969c-.277343 0-.554687-.023438-.832031-.042969-12.050781-.941406-73.152344-6.527344-91.839844-24.214844-2.367187-2.238281-3.5625-5.441406-3.285156-8.683594 4.84375-55.421874 21.101562-106.816406 21.804688-108.96875.808593-2.539062 2.539062-4.695312 4.863281-6.015624 1.621093-.941407 40.128906-22.742188 69.289062-22.742188 5.890625 0 10.667969 4.777344 10.667969 10.667969v149.332031c0 2.988281-1.238281 5.800781-3.433594 7.828125-1.964844 1.835937-4.566406 2.839844-7.234375 2.839844zm-74.132812-37.035157c12.074219 6.71875 40.40625 12.03125 63.46875 14.632813v-125.800781c-16 3.070312-34.605469 11.625-44.394531 16.808594-3.671876 12.460937-14.722657 52.140624-19.074219 94.359374zm0 0"/><path d="m277.332031 235.03125c-9.109375 0-18.195312-3.457031-25.128906-10.390625-11.945313-11.949219-13.804687-30.785156-4.4375-44.84375l33.558594-46.101563c4.308593-5.910156 6.675781-13.183593 6.675781-20.480468 0-9.300782-4.011719-18.109375-11.03125-24.191406-7.015625-6.078126-16.253906-8.789063-25.492188-7.507813l-14.292968 3.519531c-.832032.191406-1.664063.296875-2.515625.296875h-96c-4.757813 0-8.941407-3.15625-10.261719-7.742187-1.300781-4.585938.574219-9.472656 4.628906-11.988282l85.332032-52.949218c14.976562-11.03125 61.164062-12.269532 80.300781-12.269532l140.285156 21.460938c2.988281.449219 5.632813 2.175781 7.296875 4.695312 1.664062 2.539063 2.175781 5.652344 1.386719 8.574219l-23.574219 89.453125c-.191406.703125-.445312 1.386719-.765625 2.046875-12.90625 25.8125-38.207031 42.347657-66.753906 43.945313l-54.078125 54.082031c-6.933594 6.910156-16.023438 10.390625-25.132813 10.390625zm-21.417969-175.042969c13.164063 0 25.386719 4.566407 35.050782 12.929688 11.667968 10.132812 18.367187 24.808593 18.367187 40.277343 0 11.96875-3.710937 23.378907-10.75 33.042969l-33.324219 45.761719c-3.496093 5.269531-2.75 12.800781 2.027344 17.558594 5.355469 5.375 14.71875 5.375 20.074219 0l57.089844-57.089844c2.003906-2.003906 4.714843-3.136719 7.550781-3.136719 21.886719 0 41.621094-11.988281 51.734375-31.335937l20.265625-76.886719-126.953125-19.542969c-30.679687.128906-60.054687 3.820313-66.730469 8.726563l-54.253906 33.707031h57.34375l14.058594-3.414062c2.839844-.40625 5.65625-.597657 8.449218-.597657zm0 0"/><path d="m309.332031 341.332031h-213.332031c-5.886719 0-10.667969-4.777343-10.667969-10.664062v-213.335938c0-5.886719 4.78125-10.664062 10.667969-10.664062h160c5.886719 0 10.667969 4.777343 10.667969 10.664062 0 5.890625-4.78125 10.667969-10.667969 10.667969h-149.332031v192h192v-64c0-5.886719 4.777343-10.667969 10.664062-10.667969 5.890625 0 10.667969 4.78125 10.667969 10.667969v74.667969c0 5.886719-4.777344 10.664062-10.667969 10.664062zm0 0"/><path d="m330.667969 341.332031h-256c-5.890625 0-10.667969-4.777343-10.667969-10.664062 0-5.890625 4.777344-10.667969 10.667969-10.667969h256c5.886719 0 10.664062 4.777344 10.664062 10.667969 0 5.886719-4.777343 10.664062-10.664062 10.664062zm0 0"/><path d="m394.667969 405.332031h-384c-3.136719 0-6.125-1.363281-8.128907-3.773437-2.027343-2.390625-2.902343-5.570313-2.390624-8.640625l21.335937-128c.851563-5.140625 5.289063-8.917969 10.515625-8.917969h64c5.886719 0 10.667969 4.777344 10.667969 10.667969 0 5.886719-4.78125 10.664062-10.667969 10.664062h-54.976562l-17.769532 106.667969h358.824219l-17.769531-106.667969h-54.976563c-5.886719 0-10.664062-4.777343-10.664062-10.664062 0-5.890625 4.777343-10.667969 10.664062-10.667969h64c5.226563 0 9.664063 3.777344 10.519531 8.917969l21.332032 128c.511718 3.09375-.363282 6.25-2.390625 8.640625-2.003907 2.410156-4.992188 3.773437-8.125 3.773437zm0 0"/><path d="m394.667969 512h-384c-5.890625 0-10.667969-4.777344-10.667969-10.667969v-106.664062c0-5.890625 4.777344-10.667969 10.667969-10.667969 5.886719 0 10.664062 4.777344 10.664062 10.667969v96h362.667969v-96c0-5.890625 4.777344-10.667969 10.667969-10.667969 5.886719 0 10.664062 4.777344 10.664062 10.667969v106.664062c0 5.890625-4.777343 10.667969-10.664062 10.667969zm0 0"/></svg>