<svg height="60pt" viewBox="0 0 60 60" width="60pt" xmlns="http://www.w3.org/2000/svg"><path d="m9 4h42v34h-42zm0 0" fill="#ffeb99"/><path d="m29.53125 22.96875c-.242188-.027344-.480469-.082031-.714844-.15625.234375.074219.472656.125.714844.15625zm0 0" fill="#78b9eb"/><path d="m55 38c2.210938 0 4-1.789062 4-4 0 2.210938-1.789062 4-4 4zm0 0" fill="#78b9eb"/><path d="m55 4c2.210938 0 4 1.789062 4 4 0-2.210938-1.789062-4-4-4zm0 0" fill="#78b9eb"/><path d="m28 22.460938c.203125.113281.414062.207031.632812.285156-.21875-.074219-.429687-.171875-.632812-.285156zm0 0" fill="#78b9eb"/><path d="m5 38c-2.210938 0-4-1.789062-4-4 0 2.210938 1.789062 4 4 4zm0 0" fill="#78b9eb"/><path d="m5 4c-2.210938 0-4 1.789062-4 4 0-2.210938 1.789062-4 4-4zm0 0" fill="#78b9eb"/><path d="m1 8v26c0 2.210938 1.789062 4 4 4h4v-34h-4c-2.210938 0-4 1.789062-4 4zm0 0" fill="#ff9478"/><path d="m55 4h-4v34h4c2.210938 0 4-1.789062 4-4v-26c0-2.210938-1.789062-4-4-4zm0 0" fill="#ff9478"/><path d="m25 26c-1.105469 0-2 .894531-2 2v2h14v-2c0-1.105469-.894531-2-2-2zm0 0" fill="#00ccb3"/><path d="m32 26v-3.539062c-.609375.351562-1.296875.539062-2 .539062-.152344 0-.308594-.007812-.460938-.03125h-.007812c-.242188-.027344-.480469-.082031-.714844-.15625-.0625-.015625-.121094-.039062-.183594-.0625-.21875-.078125-.429687-.175781-.632812-.289062v3.539062zm0 0" fill="#ffdaaa"/><path d="m28.816406 22.8125c.234375.074219.472656.128906.714844.15625.15625.019531.3125.03125.46875.03125.703125 0 1.390625-.1875 2-.539062.300781-.175782.582031-.386719.828125-.632813.75-.75 1.171875-1.765625 1.171875-2.828125v-3c0-.035156 0-.066406-.011719-.101562-.042969.011718-.089843.019531-.136719.023437-.28125.054687-.566406.082031-.851562.078125-1.082031.003906-2.136719-.347656-3-1-.945312 1.257812-2.425781 2-4 2v2c-.003906 1.429688.761719 2.75 2 3.460938.203125.113281.414062.210937.632812.285156.058594.023437.121094.046875.183594.066406zm0 0" fill="#ffdaaa"/><path d="m28.816406 22.8125c-.0625-.019531-.125-.042969-.183594-.066406.0625.023437.121094.046875.183594.066406zm0 0" fill="#78b9eb"/><path d="m29.539062 22.96875c.152344.023438.308594.03125.460938.03125-.15625 0-.3125-.011719-.46875-.03125zm0 0" fill="#78b9eb"/><path d="m30.878906 13.101562c-.152344.6875-.453125 1.335938-.878906 1.898438.863281.652344 1.917969 1.003906 3 1 .285156.003906.570312-.023438.851562-.078125.046876-.003906.09375-.011719.136719-.023437-.019531-1.289063-.539062-2.523438-1.449219-3.4375-.445312-.441407-.964843-.796876-1.539062-1.050782v.589844c0 .371094-.039062.738281-.121094 1.101562zm0 0" fill="#ff7956"/><path d="m30 15c.425781-.5625.726562-1.210938.878906-1.898438.082032-.363281.121094-.730468.121094-1.101562v-.589844c-.632812-.269531-1.3125-.410156-2-.410156-.332031-.003906-.664062.03125-.988281.101562-2.335938.46875-4.011719 2.519532-4.011719 4.898438v.589844c.632812.269531 1.3125.410156 2 .410156 1.574219 0 3.054688-.742188 4-2zm0 0" fill="#ff9478"/><path d="m21.179688 7h17.640624c.292969 0 .574219-.128906.761719-.355469.191407-.222656.273438-.519531.222657-.808593l-.664063-4c-.082031-.480469-.5-.835938-.988281-.835938h-16.304688c-.488281 0-.90625.355469-.988281.835938l-.664063 4c-.050781.289062.03125.585937.222657.808593.1875.226563.46875.355469.761719.355469zm0 0" fill="#ffb655"/><path d="m38.820312 35h-17.640624c-.292969 0-.574219.128906-.761719.355469-.191407.222656-.273438.519531-.222657.808593l.664063 4c.082031.480469.5.835938.988281.835938h16.304688c.488281 0 .90625-.355469.988281-.835938l.664063-4c.050781-.289062-.03125-.585937-.222657-.808593-.1875-.226563-.46875-.355469-.761719-.355469zm0 0" fill="#ffb655"/><path d="m24 44c0 .550781.449219 1 1 1h10c.550781 0 1-.449219 1-1v-3h-12zm0 0" fill="#898890"/><path d="m28 45h4v14h-4zm0 0" fill="#787680"/><g fill="#3e3d42"><path d="m4 33h2v2h-2zm0 0"/><path d="m4 25h2v6h-2zm0 0"/><path d="m55 3h-14.652344l-.222656-1.332031c-.160156-.960938-.996094-1.667969-1.972656-1.667969h-16.304688c-.976562 0-1.8125.707031-1.972656 1.671875l-.222656 1.328125h-14.652344c-2.761719.003906-4.99609375 2.238281-5 5v26c.00390625 2.761719 2.238281 4.996094 5 5h14.652344l.222656 1.332031c.160156.960938.996094 1.667969 1.972656 1.667969h1.152344v2c0 1.105469.894531 2 2 2h2v13c0 .550781.449219 1 1 1h4c.550781 0 1-.449219 1-1v-13h2c1.105469 0 2-.894531 2-2v-2h1.152344c.976562 0 1.8125-.707031 1.972656-1.671875l.222656-1.328125h14.652344c2.761719-.003906 4.996094-2.238281 5-5v-26c-.003906-2.761719-2.238281-4.996094-5-5zm-33.152344-1h16.304688l.667968 4h-17.640624zm-16.847656 35c-1.65625 0-3-1.34375-3-3v-26c0-1.65625 1.34375-3 3-3h3v32zm26 21h-2v-12h2zm4-14h-10v-2h10zm3.152344-4h-16.300782l-.667968-4h17.636718zm2.191406-5.292969c-.378906-.449219-.9375-.707031-1.523438-.707031h-17.640624c-.585938 0-1.144532.257812-1.523438.707031-.382812.449219-.546875 1.042969-.449219 1.621094l.113281.671875h-9.320312v-32h9.320312l-.113281.671875c-.097656.578125.066407 1.171875.449219 1.621094.378906.449219.9375.707031 1.523438.707031h17.640624c.585938 0 1.144532-.257812 1.523438-.707031.382812-.449219.546875-1.042969.449219-1.621094l-.113281-.671875h9.320312v32h-9.320312l.113281-.671875c.097656-.578125-.066407-1.171875-.445313-1.621094zm17.65625-.707031c0 1.65625-1.34375 3-3 3h-3v-32h3c1.65625 0 3 1.34375 3 3zm0 0"/><path d="m54 19h2v4h-2zm0 0"/><path d="m35 25h-2v-2c.191406-.144531.371094-.296875.542969-.464844.933593-.9375 1.457031-2.210937 1.457031-3.535156v-3c-.003906-.082031-.011719-.164062-.023438-.242188-.054687-1.503906-.671874-2.933593-1.730468-4-.53125-.527343-1.152344-.953124-1.835938-1.257812h-.015625c-1.132812-.476562-2.378906-.605469-3.582031-.371094-2.792969.570313-4.800781 3.019532-4.8125 5.871094v.589844c0 .402344.238281.761718.605469.921875.449219.1875.914062.320312 1.394531.398437v1.089844c.003906 1.570312.742188 3.050781 2 3.992188v2.007812h-2c-1.65625 0-3 1.34375-3 3v2c0 .550781.449219 1 1 1h14c.550781 0 1-.449219 1-1v-2c0-1.65625-1.34375-3-3-3zm-2-6c0 .789062-.308594 1.546875-.863281 2.109375-.191407.1875-.402344.347656-.636719.484375-.644531.371094-1.410156.484375-2.136719.320312-.0625-.011718-.125-.023437-.1875-.042968-.234375-.0625-.464843-.15625-.675781-.277344-.925781-.535156-1.5-1.523438-1.5-2.59375v-1.085938c.046875-.007812.09375-.023437.136719-.035156.199219-.039062.394531-.085937.589843-.144531.070313-.023437.144532-.042969.21875-.066406.257813-.089844.507813-.191407.753907-.316407.023437-.011718.046875-.027343.074219-.042968.21875-.113282.429687-.238282.628906-.378906.066406-.042969.128906-.09375.191406-.140626.164062-.125.324219-.257812.476562-.398437.035157-.035156.074219-.0625.109376-.09375l.019531.007813c.027343.015624.058593.023437.085937.039062.226563.117188.464844.214844.707032.300781.085937.03125.171874.054688.257812.082031.203125.058594.40625.109376.613281.148438.085938.015625.171875.035156.257813.046875.289062.046875.585937.074219.878906.078125zm-1.417969-4.820312c.027344-.070313.058594-.136719.082031-.207032.078126-.214844.140626-.433594.191407-.65625.007812-.035156.015625-.070312.023437-.097656.476563.496094.816406 1.105469.988282 1.773438-.058594 0-.113282-.007813-.171876-.011719-.164062-.011719-.324218-.03125-.484374-.0625-.085938-.019531-.171876-.039063-.257813-.0625-.144531-.039063-.289063-.085938-.429687-.140625-.046876-.019532-.09375-.042969-.140626-.0625.007813-.015625.011719-.03125.019532-.046875.066406-.140625.125-.285157.179687-.425781zm-3.355469-2.101563c.582032-.113281 1.183594-.097656 1.761719.046875-.011719 1.097656-.496093 2.140625-1.335937 2.851562-.066406.058594-.132813.117188-.203125.167969-.160157.125-.335938.238281-.515625.339844-.136719.070313-.277344.136719-.421875.195313-.109375.042968-.222657.085937-.335938.121093-.132812.042969-.269531.082031-.402343.109375-.214844.046875-.433594.070313-.652344.078125-.378906.015625-.753906-.019531-1.121094-.113281.0625-1.859375 1.398438-3.433594 3.226562-3.796875zm.773438 11.820313c.070312.015624.144531.011718.21875.023437.070312.011719.125.035156.1875.042969.195312.023437.394531.035156.59375.035156.300781-.003906.597656-.035156.890625-.089844.035156-.007812.074219 0 .109375-.011718v1.101562h-2zm7 5.101562h-12v-1c0-.550781.449219-1 1-1h10c.550781 0 1 .449219 1 1zm0 0"/><path d="m12 11v4h2v-3h3v-2h-4c-.550781 0-1 .449219-1 1zm0 0"/><path d="m46 15h2v-4c0-.550781-.449219-1-1-1h-4v2h3zm0 0"/><path d="m14 27h-2v4c0 .550781.449219 1 1 1h4v-2h-3zm0 0"/><path d="m48 31v-4h-2v3h-3v2h4c.550781 0 1-.449219 1-1zm0 0"/></g></svg>